<mxfile host="app.diagrams.net" modified="2022-09-19T14:15:32.242Z" agent="5.0 (Windows NT 10.0; Win64; x64) AppleWebKit/537.36 (KHTML, like Gecko) Chrome/105.0.0.0 Safari/537.36" etag="GaNsqN8oSW5ZiGjRe0pz" version="20.3.2" type="github">
  <diagram id="TjR1-rSzGZyo8haZhh6W" name="第 1 页">
    <mxGraphModel dx="1465" dy="1104" grid="0" gridSize="10" guides="1" tooltips="1" connect="1" arrows="1" fold="1" page="0" pageScale="1" pageWidth="827" pageHeight="1169" math="0" shadow="0">
      <root>
        <mxCell id="0" />
        <mxCell id="1" parent="0" />
        <mxCell id="iYNAMt9WykVBRRJNnP1b-1" value="validate" style="rounded=1;whiteSpace=wrap;html=1;sketch=1;glass=0;shadow=1;" vertex="1" parent="1">
          <mxGeometry x="340" y="370" width="120" height="60" as="geometry" />
        </mxCell>
        <mxCell id="iYNAMt9WykVBRRJNnP1b-2" value="validationSchema" style="rounded=1;whiteSpace=wrap;html=1;sketch=1;glass=0;shadow=1;" vertex="1" parent="1">
          <mxGeometry x="340" y="470" width="120" height="60" as="geometry" />
        </mxCell>
        <mxCell id="iYNAMt9WykVBRRJNnP1b-3" value="validate" style="rounded=1;whiteSpace=wrap;html=1;sketch=1;glass=0;shadow=1;" vertex="1" parent="1">
          <mxGeometry x="340" y="570" width="120" height="60" as="geometry" />
        </mxCell>
        <mxCell id="iYNAMt9WykVBRRJNnP1b-5" value="validate" style="rounded=1;whiteSpace=wrap;html=1;sketch=1;glass=0;shadow=1;" vertex="1" parent="1">
          <mxGeometry x="190" y="570" width="120" height="60" as="geometry" />
        </mxCell>
        <mxCell id="iYNAMt9WykVBRRJNnP1b-6" value="validate" style="rounded=1;whiteSpace=wrap;html=1;sketch=1;glass=0;shadow=1;" vertex="1" parent="1">
          <mxGeometry x="490" y="570" width="120" height="60" as="geometry" />
        </mxCell>
        <mxCell id="iYNAMt9WykVBRRJNnP1b-8" value="" style="endArrow=none;dashed=1;html=1;dashPattern=1 3;strokeWidth=2;rounded=0;" edge="1" parent="1">
          <mxGeometry width="50" height="50" relative="1" as="geometry">
            <mxPoint x="80" y="550" as="sourcePoint" />
            <mxPoint x="670" y="550" as="targetPoint" />
          </mxGeometry>
        </mxCell>
        <mxCell id="iYNAMt9WykVBRRJNnP1b-9" value="" style="endArrow=classic;html=1;rounded=0;" edge="1" parent="1">
          <mxGeometry width="50" height="50" relative="1" as="geometry">
            <mxPoint x="170" y="340" as="sourcePoint" />
            <mxPoint x="170" y="700" as="targetPoint" />
          </mxGeometry>
        </mxCell>
        <mxCell id="iYNAMt9WykVBRRJNnP1b-10" value="优先级从高到低" style="text;html=1;align=center;verticalAlign=middle;resizable=0;points=[];autosize=1;strokeColor=none;fillColor=none;sketch=0;fontSize=16;" vertex="1" parent="1">
          <mxGeometry x="100" y="310" width="140" height="30" as="geometry" />
        </mxCell>
        <mxCell id="iYNAMt9WykVBRRJNnP1b-11" value="不同字段merge" style="text;html=1;align=center;verticalAlign=middle;resizable=0;points=[];autosize=1;strokeColor=none;fillColor=none;fontSize=16;" vertex="1" parent="1">
          <mxGeometry x="520" y="400" width="130" height="30" as="geometry" />
        </mxCell>
        <mxCell id="iYNAMt9WykVBRRJNnP1b-12" value="相同字段覆盖" style="text;html=1;align=center;verticalAlign=middle;resizable=0;points=[];autosize=1;strokeColor=none;fillColor=none;fontSize=16;" vertex="1" parent="1">
          <mxGeometry x="525" y="460" width="120" height="30" as="geometry" />
        </mxCell>
        <mxCell id="iYNAMt9WykVBRRJNnP1b-13" value="字段级" style="text;html=1;align=center;verticalAlign=middle;resizable=0;points=[];autosize=1;strokeColor=none;fillColor=none;fontSize=16;" vertex="1" parent="1">
          <mxGeometry x="95" y="585" width="70" height="30" as="geometry" />
        </mxCell>
        <mxCell id="iYNAMt9WykVBRRJNnP1b-14" value="表单级" style="text;html=1;align=center;verticalAlign=middle;resizable=0;points=[];autosize=1;strokeColor=none;fillColor=none;fontSize=16;" vertex="1" parent="1">
          <mxGeometry x="95" y="415" width="70" height="30" as="geometry" />
        </mxCell>
        <mxCell id="iYNAMt9WykVBRRJNnP1b-15" value="会被完全覆盖" style="text;html=1;align=center;verticalAlign=middle;resizable=0;points=[];autosize=1;strokeColor=none;fillColor=none;fontSize=16;" vertex="1" parent="1">
          <mxGeometry x="340" y="656" width="120" height="30" as="geometry" />
        </mxCell>
        <mxCell id="iYNAMt9WykVBRRJNnP1b-17" value="validate" style="rounded=1;whiteSpace=wrap;html=1;sketch=1;glass=0;shadow=1;" vertex="1" parent="1">
          <mxGeometry x="933" y="849" width="120" height="60" as="geometry" />
        </mxCell>
        <mxCell id="iYNAMt9WykVBRRJNnP1b-18" value="validationSchema" style="rounded=1;whiteSpace=wrap;html=1;sketch=1;glass=0;shadow=1;" vertex="1" parent="1">
          <mxGeometry x="933" y="949" width="120" height="60" as="geometry" />
        </mxCell>
        <mxCell id="iYNAMt9WykVBRRJNnP1b-19" value="validate" style="rounded=1;whiteSpace=wrap;html=1;sketch=1;glass=0;shadow=1;" vertex="1" parent="1">
          <mxGeometry x="933" y="1049" width="120" height="60" as="geometry" />
        </mxCell>
        <mxCell id="iYNAMt9WykVBRRJNnP1b-20" value="validate" style="rounded=1;whiteSpace=wrap;html=1;sketch=1;glass=0;shadow=1;" vertex="1" parent="1">
          <mxGeometry x="783" y="1049" width="120" height="60" as="geometry" />
        </mxCell>
        <mxCell id="iYNAMt9WykVBRRJNnP1b-21" value="validate" style="rounded=1;whiteSpace=wrap;html=1;sketch=1;glass=0;shadow=1;" vertex="1" parent="1">
          <mxGeometry x="1083" y="1049" width="120" height="60" as="geometry" />
        </mxCell>
        <mxCell id="iYNAMt9WykVBRRJNnP1b-22" value="" style="endArrow=none;dashed=1;html=1;dashPattern=1 3;strokeWidth=2;rounded=0;" edge="1" parent="1">
          <mxGeometry width="50" height="50" relative="1" as="geometry">
            <mxPoint x="673" y="1029" as="sourcePoint" />
            <mxPoint x="1263" y="1029" as="targetPoint" />
          </mxGeometry>
        </mxCell>
        <mxCell id="iYNAMt9WykVBRRJNnP1b-23" value="" style="endArrow=classic;html=1;rounded=0;" edge="1" parent="1">
          <mxGeometry width="50" height="50" relative="1" as="geometry">
            <mxPoint x="763" y="819" as="sourcePoint" />
            <mxPoint x="763" y="1179" as="targetPoint" />
          </mxGeometry>
        </mxCell>
        <mxCell id="iYNAMt9WykVBRRJNnP1b-24" value="优先级从高到低" style="text;html=1;align=center;verticalAlign=middle;resizable=0;points=[];autosize=1;strokeColor=none;fillColor=none;sketch=0;fontSize=16;" vertex="1" parent="1">
          <mxGeometry x="693" y="789" width="140" height="30" as="geometry" />
        </mxCell>
        <mxCell id="iYNAMt9WykVBRRJNnP1b-25" value="不同字段merge" style="text;html=1;align=center;verticalAlign=middle;resizable=0;points=[];autosize=1;strokeColor=none;fillColor=none;fontSize=16;" vertex="1" parent="1">
          <mxGeometry x="1113" y="879" width="130" height="30" as="geometry" />
        </mxCell>
        <mxCell id="iYNAMt9WykVBRRJNnP1b-26" value="相同字段覆盖" style="text;html=1;align=center;verticalAlign=middle;resizable=0;points=[];autosize=1;strokeColor=none;fillColor=none;fontSize=16;" vertex="1" parent="1">
          <mxGeometry x="1118" y="939" width="120" height="30" as="geometry" />
        </mxCell>
        <mxCell id="iYNAMt9WykVBRRJNnP1b-27" value="字段级" style="text;html=1;align=center;verticalAlign=middle;resizable=0;points=[];autosize=1;strokeColor=none;fillColor=none;fontSize=16;" vertex="1" parent="1">
          <mxGeometry x="688" y="1064" width="70" height="30" as="geometry" />
        </mxCell>
        <mxCell id="iYNAMt9WykVBRRJNnP1b-28" value="表单级" style="text;html=1;align=center;verticalAlign=middle;resizable=0;points=[];autosize=1;strokeColor=none;fillColor=none;fontSize=16;" vertex="1" parent="1">
          <mxGeometry x="688" y="894" width="70" height="30" as="geometry" />
        </mxCell>
        <mxCell id="iYNAMt9WykVBRRJNnP1b-29" value="会被完全覆盖" style="text;html=1;align=center;verticalAlign=middle;resizable=0;points=[];autosize=1;strokeColor=none;fillColor=none;fontSize=16;" vertex="1" parent="1">
          <mxGeometry x="933" y="1135" width="120" height="30" as="geometry" />
        </mxCell>
      </root>
    </mxGraphModel>
  </diagram>
</mxfile>
